G04 EAGLE Gerber RS-274X export*
G75*
%MOMM*%
%FSLAX34Y34*%
%LPD*%
%INTop Copper*%
%IPPOS*%
%AMOC8*
5,1,8,0,0,1.08239X$1,22.5*%
G01*
%ADD10R,1.000000X1.100000*%
%ADD11R,1.100000X1.000000*%
%ADD12R,1.371600X1.371600*%
%ADD13C,1.371600*%
%ADD14C,1.500000*%
%ADD15R,1.570000X0.350000*%
%ADD16R,2.100000X2.400000*%
%ADD17R,1.320800X0.558800*%
%ADD18C,0.350000*%
%ADD19C,0.304800*%
%ADD20C,0.406400*%
%ADD21C,0.800000*%
%ADD22C,0.800000*%
%ADD23C,0.700000*%

G36*
X157693Y3822D02*
X157693Y3822D01*
X157794Y3824D01*
X157866Y3842D01*
X157940Y3851D01*
X158034Y3884D01*
X158132Y3909D01*
X158198Y3943D01*
X158268Y3968D01*
X158352Y4023D01*
X158442Y4069D01*
X158498Y4117D01*
X158561Y4157D01*
X158631Y4229D01*
X158707Y4294D01*
X158751Y4354D01*
X158803Y4408D01*
X158855Y4494D01*
X158914Y4575D01*
X158944Y4643D01*
X158982Y4707D01*
X159012Y4802D01*
X159052Y4895D01*
X159065Y4968D01*
X159088Y5039D01*
X159096Y5139D01*
X159114Y5238D01*
X159110Y5312D01*
X159116Y5386D01*
X159101Y5485D01*
X159096Y5586D01*
X159075Y5657D01*
X159064Y5731D01*
X159027Y5824D01*
X158999Y5921D01*
X158963Y5986D01*
X158936Y6055D01*
X158878Y6137D01*
X158829Y6225D01*
X158764Y6301D01*
X158737Y6341D01*
X158710Y6365D01*
X158671Y6411D01*
X158557Y6525D01*
X156951Y10402D01*
X156951Y14598D01*
X158557Y18475D01*
X160005Y19923D01*
X160084Y20022D01*
X160168Y20116D01*
X160192Y20158D01*
X160222Y20196D01*
X160276Y20310D01*
X160337Y20421D01*
X160350Y20468D01*
X160371Y20511D01*
X160397Y20635D01*
X160432Y20757D01*
X160437Y20817D01*
X160444Y20852D01*
X160443Y20900D01*
X160451Y21000D01*
X160451Y27027D01*
X161524Y29618D01*
X163507Y31601D01*
X166098Y32674D01*
X168902Y32674D01*
X171493Y31601D01*
X173476Y29618D01*
X174549Y27027D01*
X174549Y21000D01*
X174563Y20875D01*
X174570Y20749D01*
X174583Y20702D01*
X174589Y20654D01*
X174631Y20535D01*
X174666Y20414D01*
X174690Y20372D01*
X174706Y20326D01*
X174775Y20220D01*
X174836Y20110D01*
X174876Y20063D01*
X174895Y20033D01*
X174930Y20000D01*
X174995Y19923D01*
X176443Y18475D01*
X178049Y14598D01*
X178049Y10402D01*
X176443Y6525D01*
X176329Y6411D01*
X176267Y6332D01*
X176197Y6260D01*
X176159Y6196D01*
X176113Y6138D01*
X176070Y6047D01*
X176018Y5961D01*
X175996Y5890D01*
X175964Y5823D01*
X175943Y5725D01*
X175912Y5629D01*
X175906Y5555D01*
X175890Y5482D01*
X175892Y5382D01*
X175884Y5282D01*
X175895Y5208D01*
X175896Y5134D01*
X175921Y5036D01*
X175936Y4937D01*
X175963Y4868D01*
X175981Y4796D01*
X176027Y4706D01*
X176064Y4613D01*
X176107Y4552D01*
X176141Y4486D01*
X176206Y4410D01*
X176263Y4327D01*
X176318Y4277D01*
X176367Y4221D01*
X176448Y4161D01*
X176522Y4094D01*
X176587Y4058D01*
X176647Y4013D01*
X176739Y3974D01*
X176827Y3925D01*
X176899Y3905D01*
X176967Y3875D01*
X177066Y3858D01*
X177163Y3830D01*
X177263Y3822D01*
X177310Y3814D01*
X177346Y3816D01*
X177406Y3811D01*
X182594Y3811D01*
X182693Y3822D01*
X182794Y3824D01*
X182866Y3842D01*
X182940Y3851D01*
X183034Y3884D01*
X183132Y3909D01*
X183198Y3943D01*
X183268Y3968D01*
X183352Y4023D01*
X183442Y4069D01*
X183498Y4117D01*
X183561Y4157D01*
X183631Y4229D01*
X183707Y4294D01*
X183751Y4354D01*
X183803Y4408D01*
X183855Y4494D01*
X183914Y4575D01*
X183944Y4643D01*
X183982Y4707D01*
X184012Y4802D01*
X184052Y4895D01*
X184065Y4968D01*
X184088Y5039D01*
X184096Y5139D01*
X184114Y5238D01*
X184110Y5312D01*
X184116Y5386D01*
X184101Y5485D01*
X184096Y5586D01*
X184075Y5657D01*
X184064Y5731D01*
X184027Y5824D01*
X183999Y5921D01*
X183963Y5986D01*
X183936Y6055D01*
X183878Y6137D01*
X183829Y6225D01*
X183764Y6301D01*
X183737Y6341D01*
X183710Y6365D01*
X183671Y6411D01*
X183557Y6525D01*
X181951Y10402D01*
X181951Y14598D01*
X183557Y18475D01*
X185878Y20796D01*
X185912Y20840D01*
X185953Y20877D01*
X186086Y21058D01*
X186094Y21069D01*
X186096Y21072D01*
X186098Y21075D01*
X187193Y22855D01*
X187237Y22948D01*
X187260Y22986D01*
X187264Y23000D01*
X187305Y23074D01*
X187319Y23124D01*
X187341Y23170D01*
X187366Y23291D01*
X187400Y23409D01*
X187405Y23475D01*
X187413Y23511D01*
X187412Y23558D01*
X187419Y23653D01*
X187419Y24428D01*
X187416Y24454D01*
X187418Y24480D01*
X187396Y24627D01*
X187379Y24774D01*
X187371Y24799D01*
X187367Y24825D01*
X187312Y24963D01*
X187262Y25102D01*
X187248Y25124D01*
X187238Y25149D01*
X187153Y25270D01*
X187073Y25395D01*
X187054Y25413D01*
X187039Y25435D01*
X186929Y25534D01*
X186822Y25637D01*
X186800Y25651D01*
X186780Y25668D01*
X186650Y25740D01*
X186523Y25816D01*
X186498Y25824D01*
X186475Y25837D01*
X186332Y25877D01*
X186191Y25922D01*
X186165Y25924D01*
X186140Y25932D01*
X185896Y25951D01*
X185737Y25951D01*
X183951Y27737D01*
X183951Y40263D01*
X185111Y41423D01*
X185128Y41443D01*
X185148Y41460D01*
X185236Y41580D01*
X185328Y41696D01*
X185339Y41720D01*
X185355Y41741D01*
X185414Y41877D01*
X185477Y42011D01*
X185482Y42037D01*
X185493Y42061D01*
X185519Y42207D01*
X185550Y42352D01*
X185550Y42378D01*
X185554Y42404D01*
X185547Y42551D01*
X185544Y42700D01*
X185538Y42726D01*
X185537Y42752D01*
X185495Y42894D01*
X185459Y43038D01*
X185447Y43061D01*
X185440Y43087D01*
X185368Y43216D01*
X185300Y43348D01*
X185283Y43368D01*
X185270Y43391D01*
X185111Y43577D01*
X183951Y44737D01*
X183951Y47654D01*
X183948Y47680D01*
X183950Y47706D01*
X183928Y47853D01*
X183911Y48000D01*
X183903Y48025D01*
X183899Y48051D01*
X183844Y48189D01*
X183794Y48328D01*
X183780Y48350D01*
X183770Y48375D01*
X183685Y48496D01*
X183605Y48621D01*
X183586Y48639D01*
X183571Y48661D01*
X183461Y48760D01*
X183354Y48863D01*
X183332Y48877D01*
X183312Y48894D01*
X183182Y48966D01*
X183055Y49042D01*
X183030Y49050D01*
X183007Y49063D01*
X182864Y49103D01*
X182723Y49148D01*
X182697Y49150D01*
X182672Y49158D01*
X182428Y49177D01*
X158399Y49177D01*
X158373Y49174D01*
X158347Y49176D01*
X158200Y49154D01*
X158053Y49137D01*
X158028Y49129D01*
X158002Y49125D01*
X157864Y49070D01*
X157725Y49020D01*
X157703Y49006D01*
X157678Y48996D01*
X157556Y48911D01*
X157432Y48831D01*
X157414Y48812D01*
X157392Y48797D01*
X157293Y48687D01*
X157190Y48580D01*
X157176Y48558D01*
X157159Y48538D01*
X157087Y48408D01*
X157011Y48281D01*
X157003Y48256D01*
X156990Y48233D01*
X156950Y48090D01*
X156905Y47949D01*
X156903Y47923D01*
X156895Y47898D01*
X156876Y47654D01*
X156876Y45950D01*
X156882Y45899D01*
X156879Y45847D01*
X156902Y45726D01*
X156905Y45699D01*
X156883Y45480D01*
X156884Y45431D01*
X156876Y45330D01*
X156876Y45129D01*
X156866Y45103D01*
X156822Y44862D01*
X156786Y44497D01*
X156789Y44345D01*
X156787Y44194D01*
X156788Y44190D01*
X156785Y44180D01*
X156780Y44153D01*
X156770Y44128D01*
X156726Y43887D01*
X156724Y43865D01*
X156696Y43822D01*
X156686Y43796D01*
X156677Y43780D01*
X156662Y43736D01*
X156607Y43594D01*
X156476Y43163D01*
X156449Y43015D01*
X156417Y42866D01*
X156417Y42862D01*
X156413Y42853D01*
X156402Y42828D01*
X156388Y42805D01*
X156298Y42577D01*
X156292Y42556D01*
X156256Y42519D01*
X156241Y42495D01*
X156229Y42482D01*
X156206Y42441D01*
X156124Y42313D01*
X155912Y41916D01*
X155856Y41776D01*
X155796Y41636D01*
X155795Y41632D01*
X155789Y41624D01*
X155774Y41601D01*
X155755Y41582D01*
X155623Y41376D01*
X155612Y41356D01*
X155570Y41327D01*
X155551Y41307D01*
X155536Y41296D01*
X155506Y41260D01*
X155400Y41151D01*
X155167Y40867D01*
X155139Y40823D01*
X155104Y40785D01*
X155045Y40677D01*
X155030Y40654D01*
X154874Y40498D01*
X154844Y40460D01*
X154774Y40387D01*
X154646Y40232D01*
X154622Y40218D01*
X154436Y40060D01*
X152245Y37869D01*
X152166Y37770D01*
X152082Y37676D01*
X152058Y37634D01*
X152028Y37596D01*
X151974Y37482D01*
X151913Y37371D01*
X151900Y37324D01*
X151879Y37281D01*
X151853Y37157D01*
X151818Y37036D01*
X151813Y36975D01*
X151806Y36940D01*
X151807Y36892D01*
X151799Y36792D01*
X151799Y26737D01*
X151139Y26077D01*
X151122Y26057D01*
X151102Y26040D01*
X151014Y25921D01*
X150922Y25804D01*
X150911Y25780D01*
X150895Y25759D01*
X150837Y25623D01*
X150773Y25489D01*
X150768Y25463D01*
X150757Y25439D01*
X150731Y25293D01*
X150700Y25148D01*
X150700Y25122D01*
X150696Y25096D01*
X150703Y24948D01*
X150706Y24800D01*
X150712Y24774D01*
X150713Y24748D01*
X150755Y24606D01*
X150791Y24462D01*
X150803Y24439D01*
X150810Y24413D01*
X150883Y24284D01*
X150950Y24152D01*
X150967Y24132D01*
X150980Y24109D01*
X151139Y23923D01*
X151190Y23872D01*
X151591Y23177D01*
X151799Y22401D01*
X151799Y18999D01*
X144726Y18999D01*
X144700Y18996D01*
X144674Y18998D01*
X144527Y18976D01*
X144380Y18959D01*
X144355Y18951D01*
X144329Y18947D01*
X144192Y18892D01*
X144052Y18842D01*
X144030Y18828D01*
X144005Y18818D01*
X143884Y18733D01*
X143759Y18653D01*
X143741Y18634D01*
X143719Y18619D01*
X143620Y18509D01*
X143517Y18402D01*
X143503Y18380D01*
X143486Y18360D01*
X143414Y18230D01*
X143338Y18103D01*
X143330Y18078D01*
X143317Y18055D01*
X143277Y17912D01*
X143232Y17771D01*
X143230Y17745D01*
X143223Y17720D01*
X143203Y17476D01*
X143203Y17047D01*
X142774Y17047D01*
X142748Y17044D01*
X142722Y17046D01*
X142575Y17024D01*
X142428Y17007D01*
X142403Y16998D01*
X142377Y16994D01*
X142239Y16940D01*
X142100Y16890D01*
X142078Y16875D01*
X142053Y16866D01*
X141932Y16781D01*
X141807Y16701D01*
X141789Y16682D01*
X141767Y16667D01*
X141668Y16557D01*
X141565Y16450D01*
X141551Y16427D01*
X141534Y16408D01*
X141462Y16278D01*
X141386Y16151D01*
X141378Y16126D01*
X141365Y16103D01*
X141325Y15960D01*
X141280Y15819D01*
X141277Y15793D01*
X141270Y15768D01*
X141251Y15524D01*
X141251Y7951D01*
X138349Y7951D01*
X137573Y8159D01*
X136878Y8560D01*
X136310Y9128D01*
X135909Y9823D01*
X135701Y10599D01*
X135701Y12807D01*
X135696Y12858D01*
X135698Y12908D01*
X135676Y13030D01*
X135661Y13154D01*
X135644Y13201D01*
X135635Y13251D01*
X135586Y13365D01*
X135544Y13482D01*
X135517Y13524D01*
X135497Y13570D01*
X135422Y13670D01*
X135355Y13775D01*
X135319Y13810D01*
X135289Y13850D01*
X135194Y13930D01*
X135104Y14017D01*
X135061Y14043D01*
X135023Y14075D01*
X134912Y14132D01*
X134805Y14196D01*
X134757Y14211D01*
X134712Y14234D01*
X134592Y14264D01*
X134473Y14302D01*
X134423Y14306D01*
X134374Y14318D01*
X134250Y14320D01*
X134126Y14330D01*
X134076Y14322D01*
X134026Y14323D01*
X133904Y14297D01*
X133781Y14278D01*
X133734Y14260D01*
X133685Y14249D01*
X133573Y14195D01*
X133457Y14149D01*
X133416Y14121D01*
X133370Y14099D01*
X133273Y14021D01*
X133171Y13950D01*
X133137Y13913D01*
X133098Y13882D01*
X133021Y13784D01*
X132938Y13692D01*
X132913Y13648D01*
X132882Y13608D01*
X132771Y13390D01*
X132149Y11888D01*
X129362Y9101D01*
X125721Y7593D01*
X121779Y7593D01*
X118138Y9101D01*
X115351Y11888D01*
X115157Y12357D01*
X115109Y12445D01*
X115068Y12537D01*
X115024Y12597D01*
X114988Y12662D01*
X114921Y12736D01*
X114861Y12817D01*
X114804Y12865D01*
X114754Y12920D01*
X114671Y12977D01*
X114595Y13042D01*
X114528Y13076D01*
X114467Y13118D01*
X114374Y13155D01*
X114284Y13201D01*
X114212Y13219D01*
X114143Y13246D01*
X114044Y13260D01*
X113946Y13285D01*
X113872Y13286D01*
X113798Y13297D01*
X113698Y13288D01*
X113598Y13290D01*
X113525Y13274D01*
X113451Y13268D01*
X113355Y13237D01*
X113257Y13215D01*
X113190Y13183D01*
X113119Y13161D01*
X113033Y13109D01*
X112942Y13066D01*
X112884Y13019D01*
X112821Y12981D01*
X112749Y12911D01*
X112670Y12848D01*
X112624Y12790D01*
X112571Y12738D01*
X112516Y12654D01*
X112454Y12575D01*
X112408Y12485D01*
X112382Y12445D01*
X112370Y12411D01*
X112343Y12357D01*
X112149Y11888D01*
X109362Y9101D01*
X105721Y7593D01*
X101779Y7593D01*
X98138Y9101D01*
X95351Y11888D01*
X95157Y12357D01*
X95109Y12445D01*
X95068Y12537D01*
X95024Y12597D01*
X94988Y12662D01*
X94921Y12736D01*
X94861Y12817D01*
X94804Y12865D01*
X94754Y12920D01*
X94671Y12977D01*
X94595Y13042D01*
X94528Y13076D01*
X94467Y13118D01*
X94374Y13155D01*
X94284Y13201D01*
X94212Y13219D01*
X94143Y13246D01*
X94044Y13260D01*
X93946Y13285D01*
X93872Y13286D01*
X93798Y13297D01*
X93698Y13288D01*
X93598Y13290D01*
X93525Y13274D01*
X93451Y13268D01*
X93355Y13237D01*
X93257Y13215D01*
X93190Y13183D01*
X93119Y13161D01*
X93033Y13109D01*
X92942Y13066D01*
X92884Y13019D01*
X92821Y12981D01*
X92749Y12911D01*
X92670Y12848D01*
X92624Y12790D01*
X92571Y12738D01*
X92516Y12654D01*
X92454Y12575D01*
X92408Y12485D01*
X92382Y12445D01*
X92370Y12411D01*
X92343Y12357D01*
X92149Y11888D01*
X89362Y9101D01*
X85721Y7593D01*
X81779Y7593D01*
X78138Y9101D01*
X76229Y11011D01*
X76169Y11058D01*
X76117Y11113D01*
X76033Y11166D01*
X75956Y11228D01*
X75887Y11260D01*
X75823Y11301D01*
X75730Y11334D01*
X75641Y11377D01*
X75567Y11393D01*
X75495Y11418D01*
X75397Y11429D01*
X75300Y11450D01*
X75224Y11449D01*
X75149Y11457D01*
X75050Y11446D01*
X74951Y11444D01*
X74878Y11426D01*
X74803Y11417D01*
X74710Y11383D01*
X74613Y11359D01*
X74546Y11324D01*
X74475Y11299D01*
X74392Y11245D01*
X74304Y11199D01*
X74246Y11150D01*
X74182Y11109D01*
X74114Y11038D01*
X74038Y10974D01*
X73993Y10913D01*
X73941Y10858D01*
X73890Y10773D01*
X73831Y10693D01*
X73801Y10624D01*
X73762Y10559D01*
X73712Y10416D01*
X73693Y10373D01*
X73690Y10355D01*
X73680Y10328D01*
X73449Y9465D01*
X73048Y8770D01*
X72480Y8202D01*
X71785Y7801D01*
X71009Y7593D01*
X66035Y7593D01*
X66035Y16738D01*
X66032Y16764D01*
X66034Y16790D01*
X66012Y16937D01*
X65995Y17084D01*
X65987Y17109D01*
X65983Y17135D01*
X65928Y17272D01*
X65878Y17412D01*
X65864Y17434D01*
X65854Y17459D01*
X65822Y17504D01*
X65824Y17508D01*
X65900Y17635D01*
X65908Y17660D01*
X65921Y17683D01*
X65961Y17826D01*
X66006Y17967D01*
X66008Y17993D01*
X66016Y18018D01*
X66035Y18262D01*
X66035Y28171D01*
X66038Y28176D01*
X66114Y28303D01*
X66122Y28328D01*
X66135Y28351D01*
X66175Y28494D01*
X66220Y28635D01*
X66222Y28661D01*
X66230Y28686D01*
X66249Y28930D01*
X66249Y38024D01*
X66246Y38050D01*
X66248Y38076D01*
X66226Y38223D01*
X66209Y38370D01*
X66201Y38395D01*
X66197Y38421D01*
X66142Y38558D01*
X66092Y38698D01*
X66078Y38720D01*
X66068Y38745D01*
X65983Y38866D01*
X65903Y38991D01*
X65884Y39009D01*
X65869Y39031D01*
X65759Y39130D01*
X65652Y39233D01*
X65630Y39247D01*
X65610Y39264D01*
X65480Y39336D01*
X65353Y39412D01*
X65328Y39420D01*
X65305Y39433D01*
X65162Y39473D01*
X65021Y39518D01*
X64995Y39520D01*
X64970Y39527D01*
X64726Y39547D01*
X64297Y39547D01*
X64297Y39976D01*
X64294Y40002D01*
X64296Y40028D01*
X64274Y40175D01*
X64257Y40322D01*
X64248Y40347D01*
X64244Y40373D01*
X64190Y40511D01*
X64140Y40650D01*
X64125Y40672D01*
X64116Y40697D01*
X64031Y40818D01*
X63951Y40943D01*
X63932Y40961D01*
X63917Y40983D01*
X63807Y41082D01*
X63700Y41185D01*
X63677Y41199D01*
X63658Y41216D01*
X63528Y41288D01*
X63401Y41364D01*
X63376Y41372D01*
X63353Y41385D01*
X63210Y41425D01*
X63069Y41470D01*
X63043Y41472D01*
X63018Y41480D01*
X62774Y41499D01*
X55701Y41499D01*
X55701Y43396D01*
X55698Y43422D01*
X55700Y43448D01*
X55678Y43595D01*
X55661Y43742D01*
X55653Y43767D01*
X55649Y43793D01*
X55594Y43931D01*
X55544Y44070D01*
X55530Y44092D01*
X55520Y44117D01*
X55435Y44238D01*
X55355Y44363D01*
X55336Y44381D01*
X55321Y44403D01*
X55211Y44502D01*
X55104Y44605D01*
X55082Y44619D01*
X55062Y44636D01*
X54932Y44708D01*
X54805Y44784D01*
X54780Y44792D01*
X54757Y44805D01*
X54614Y44845D01*
X54473Y44890D01*
X54447Y44892D01*
X54422Y44900D01*
X54178Y44919D01*
X29637Y44919D01*
X27770Y45693D01*
X26127Y47336D01*
X19900Y53563D01*
X19801Y53642D01*
X19707Y53726D01*
X19664Y53750D01*
X19627Y53780D01*
X19512Y53834D01*
X19402Y53895D01*
X19355Y53908D01*
X19312Y53929D01*
X19188Y53955D01*
X19066Y53990D01*
X19006Y53995D01*
X18971Y54002D01*
X18923Y54001D01*
X18823Y54009D01*
X9179Y54009D01*
X8863Y54325D01*
X8764Y54404D01*
X8670Y54488D01*
X8628Y54512D01*
X8590Y54542D01*
X8476Y54596D01*
X8365Y54657D01*
X8319Y54670D01*
X8275Y54691D01*
X8152Y54717D01*
X8030Y54752D01*
X7969Y54757D01*
X7935Y54764D01*
X7887Y54763D01*
X7786Y54771D01*
X7262Y54771D01*
X5917Y55329D01*
X5772Y55370D01*
X5629Y55416D01*
X5605Y55418D01*
X5582Y55424D01*
X5431Y55432D01*
X5282Y55444D01*
X5258Y55440D01*
X5234Y55441D01*
X5086Y55414D01*
X4937Y55392D01*
X4915Y55383D01*
X4891Y55379D01*
X4753Y55319D01*
X4613Y55263D01*
X4593Y55249D01*
X4571Y55240D01*
X4450Y55150D01*
X4327Y55064D01*
X4311Y55046D01*
X4291Y55032D01*
X4194Y54917D01*
X4094Y54806D01*
X4082Y54784D01*
X4066Y54766D01*
X3998Y54632D01*
X3925Y54500D01*
X3919Y54477D01*
X3908Y54456D01*
X3871Y54310D01*
X3830Y54165D01*
X3828Y54136D01*
X3823Y54117D01*
X3823Y54070D01*
X3811Y53921D01*
X3811Y22215D01*
X3829Y22061D01*
X3842Y21907D01*
X3848Y21888D01*
X3851Y21869D01*
X3903Y21723D01*
X3952Y21576D01*
X3962Y21559D01*
X3968Y21541D01*
X4052Y21411D01*
X4133Y21278D01*
X4147Y21264D01*
X4157Y21248D01*
X4269Y21140D01*
X4378Y21030D01*
X4394Y21020D01*
X4408Y21006D01*
X4541Y20926D01*
X4672Y20843D01*
X4690Y20837D01*
X4707Y20827D01*
X4855Y20780D01*
X5001Y20729D01*
X5020Y20727D01*
X5039Y20721D01*
X5193Y20709D01*
X5348Y20692D01*
X5367Y20695D01*
X5386Y20693D01*
X5540Y20716D01*
X5694Y20735D01*
X5712Y20742D01*
X5731Y20745D01*
X5876Y20802D01*
X6021Y20856D01*
X6040Y20868D01*
X6055Y20873D01*
X6091Y20898D01*
X6229Y20983D01*
X6971Y21522D01*
X8451Y22276D01*
X9453Y22602D01*
X9453Y14024D01*
X9456Y13998D01*
X9454Y13972D01*
X9476Y13825D01*
X9493Y13678D01*
X9501Y13653D01*
X9505Y13627D01*
X9560Y13489D01*
X9610Y13350D01*
X9624Y13328D01*
X9634Y13303D01*
X9719Y13182D01*
X9799Y13057D01*
X9818Y13039D01*
X9833Y13017D01*
X9943Y12918D01*
X10050Y12815D01*
X10072Y12801D01*
X10092Y12784D01*
X10222Y12712D01*
X10349Y12636D01*
X10374Y12628D01*
X10397Y12615D01*
X10540Y12575D01*
X10681Y12530D01*
X10707Y12528D01*
X10732Y12520D01*
X10976Y12501D01*
X12501Y12501D01*
X12501Y10976D01*
X12504Y10950D01*
X12502Y10924D01*
X12524Y10777D01*
X12541Y10630D01*
X12550Y10605D01*
X12553Y10579D01*
X12608Y10441D01*
X12658Y10302D01*
X12672Y10280D01*
X12682Y10255D01*
X12767Y10134D01*
X12847Y10009D01*
X12866Y9991D01*
X12881Y9969D01*
X12991Y9870D01*
X13098Y9767D01*
X13120Y9753D01*
X13140Y9736D01*
X13270Y9664D01*
X13397Y9588D01*
X13422Y9580D01*
X13445Y9567D01*
X13588Y9527D01*
X13729Y9482D01*
X13755Y9480D01*
X13780Y9472D01*
X14024Y9453D01*
X22602Y9453D01*
X22276Y8451D01*
X21522Y6971D01*
X20983Y6229D01*
X20907Y6094D01*
X20827Y5961D01*
X20821Y5943D01*
X20812Y5926D01*
X20768Y5777D01*
X20721Y5629D01*
X20719Y5610D01*
X20714Y5591D01*
X20705Y5436D01*
X20693Y5282D01*
X20696Y5263D01*
X20695Y5243D01*
X20722Y5090D01*
X20745Y4937D01*
X20752Y4919D01*
X20755Y4900D01*
X20816Y4757D01*
X20873Y4613D01*
X20884Y4597D01*
X20892Y4580D01*
X20984Y4454D01*
X21072Y4327D01*
X21087Y4314D01*
X21098Y4299D01*
X21216Y4197D01*
X21331Y4094D01*
X21348Y4084D01*
X21363Y4072D01*
X21501Y4000D01*
X21636Y3925D01*
X21655Y3920D01*
X21672Y3911D01*
X21822Y3873D01*
X21972Y3830D01*
X21995Y3828D01*
X22010Y3825D01*
X22053Y3824D01*
X22215Y3811D01*
X157594Y3811D01*
X157693Y3822D01*
G37*
G36*
X54204Y55084D02*
X54204Y55084D01*
X54230Y55082D01*
X54377Y55104D01*
X54524Y55121D01*
X54549Y55129D01*
X54575Y55133D01*
X54713Y55188D01*
X54852Y55238D01*
X54874Y55252D01*
X54899Y55262D01*
X55020Y55347D01*
X55145Y55427D01*
X55163Y55446D01*
X55185Y55461D01*
X55284Y55571D01*
X55387Y55678D01*
X55401Y55700D01*
X55418Y55720D01*
X55490Y55850D01*
X55566Y55977D01*
X55574Y56002D01*
X55587Y56025D01*
X55627Y56168D01*
X55672Y56309D01*
X55674Y56335D01*
X55682Y56360D01*
X55701Y56604D01*
X55701Y62763D01*
X57487Y64549D01*
X66785Y64549D01*
X66787Y64549D01*
X66789Y64549D01*
X66960Y64569D01*
X67132Y64589D01*
X67134Y64589D01*
X67136Y64590D01*
X67368Y64665D01*
X67809Y64847D01*
X67876Y64884D01*
X67947Y64913D01*
X68027Y64969D01*
X68114Y65017D01*
X68170Y65068D01*
X68233Y65112D01*
X68299Y65185D01*
X68372Y65251D01*
X68415Y65314D01*
X68466Y65370D01*
X68514Y65456D01*
X68570Y65537D01*
X68598Y65608D01*
X68607Y65625D01*
X68614Y65637D01*
X68615Y65639D01*
X68635Y65675D01*
X68662Y65770D01*
X68698Y65862D01*
X68708Y65929D01*
X68720Y65969D01*
X68721Y65982D01*
X68730Y66011D01*
X68742Y66160D01*
X68749Y66206D01*
X68747Y66225D01*
X68749Y66255D01*
X68749Y67678D01*
X68746Y67704D01*
X68748Y67730D01*
X68726Y67877D01*
X68709Y68024D01*
X68701Y68049D01*
X68697Y68075D01*
X68642Y68213D01*
X68592Y68352D01*
X68578Y68374D01*
X68568Y68399D01*
X68483Y68520D01*
X68403Y68645D01*
X68384Y68663D01*
X68369Y68685D01*
X68259Y68784D01*
X68152Y68887D01*
X68130Y68901D01*
X68110Y68918D01*
X67980Y68990D01*
X67853Y69066D01*
X67828Y69074D01*
X67805Y69087D01*
X67662Y69127D01*
X67521Y69172D01*
X67495Y69174D01*
X67470Y69182D01*
X67226Y69201D01*
X57487Y69201D01*
X55701Y70987D01*
X55701Y72044D01*
X55698Y72070D01*
X55700Y72096D01*
X55678Y72243D01*
X55661Y72390D01*
X55653Y72415D01*
X55649Y72441D01*
X55594Y72579D01*
X55544Y72718D01*
X55530Y72740D01*
X55520Y72765D01*
X55435Y72886D01*
X55355Y73011D01*
X55336Y73029D01*
X55321Y73051D01*
X55211Y73150D01*
X55104Y73253D01*
X55082Y73267D01*
X55062Y73284D01*
X54932Y73356D01*
X54805Y73432D01*
X54780Y73440D01*
X54757Y73453D01*
X54614Y73493D01*
X54473Y73538D01*
X54447Y73540D01*
X54422Y73548D01*
X54178Y73567D01*
X52214Y73567D01*
X52088Y73553D01*
X51962Y73546D01*
X51916Y73533D01*
X51868Y73527D01*
X51749Y73485D01*
X51627Y73450D01*
X51585Y73426D01*
X51539Y73410D01*
X51433Y73341D01*
X51323Y73280D01*
X51277Y73240D01*
X51247Y73221D01*
X51213Y73186D01*
X51137Y73121D01*
X50821Y72805D01*
X35087Y72805D01*
X33301Y74591D01*
X33301Y82705D01*
X35416Y84820D01*
X35443Y84837D01*
X35461Y84856D01*
X35483Y84871D01*
X35582Y84981D01*
X35685Y85088D01*
X35699Y85110D01*
X35716Y85130D01*
X35788Y85260D01*
X35864Y85387D01*
X35872Y85412D01*
X35885Y85435D01*
X35925Y85578D01*
X35970Y85719D01*
X35972Y85745D01*
X35980Y85770D01*
X35999Y86014D01*
X35999Y92501D01*
X42049Y92501D01*
X42049Y89599D01*
X41841Y88823D01*
X41440Y88128D01*
X40872Y87560D01*
X40478Y87333D01*
X40378Y87259D01*
X40273Y87191D01*
X40238Y87155D01*
X40198Y87126D01*
X40118Y87030D01*
X40031Y86940D01*
X40005Y86898D01*
X39973Y86860D01*
X39916Y86748D01*
X39852Y86641D01*
X39837Y86594D01*
X39814Y86550D01*
X39784Y86428D01*
X39746Y86309D01*
X39742Y86260D01*
X39730Y86212D01*
X39728Y86086D01*
X39718Y85962D01*
X39725Y85913D01*
X39724Y85863D01*
X39751Y85741D01*
X39769Y85617D01*
X39788Y85571D01*
X39798Y85522D01*
X39852Y85409D01*
X39898Y85293D01*
X39926Y85252D01*
X39948Y85208D01*
X40026Y85110D01*
X40097Y85007D01*
X40134Y84974D01*
X40165Y84935D01*
X40263Y84857D01*
X40356Y84774D01*
X40399Y84750D01*
X40438Y84719D01*
X40551Y84666D01*
X40661Y84605D01*
X40709Y84592D01*
X40754Y84571D01*
X40876Y84544D01*
X40996Y84510D01*
X41059Y84505D01*
X41094Y84498D01*
X41142Y84499D01*
X41240Y84491D01*
X50821Y84491D01*
X51137Y84175D01*
X51236Y84096D01*
X51330Y84012D01*
X51372Y83988D01*
X51410Y83958D01*
X51524Y83904D01*
X51635Y83843D01*
X51681Y83830D01*
X51725Y83809D01*
X51848Y83783D01*
X51970Y83748D01*
X52031Y83743D01*
X52066Y83736D01*
X52114Y83737D01*
X52214Y83729D01*
X54286Y83729D01*
X54412Y83743D01*
X54538Y83750D01*
X54584Y83763D01*
X54632Y83769D01*
X54751Y83811D01*
X54873Y83846D01*
X54915Y83870D01*
X54961Y83886D01*
X55067Y83955D01*
X55177Y84016D01*
X55223Y84056D01*
X55253Y84075D01*
X55287Y84110D01*
X55363Y84175D01*
X56361Y85173D01*
X56378Y85193D01*
X56398Y85210D01*
X56486Y85330D01*
X56578Y85446D01*
X56589Y85470D01*
X56605Y85491D01*
X56664Y85627D01*
X56727Y85761D01*
X56732Y85787D01*
X56743Y85811D01*
X56769Y85957D01*
X56800Y86102D01*
X56800Y86128D01*
X56804Y86154D01*
X56797Y86302D01*
X56794Y86450D01*
X56788Y86476D01*
X56787Y86502D01*
X56745Y86644D01*
X56709Y86788D01*
X56697Y86811D01*
X56690Y86837D01*
X56618Y86966D01*
X56550Y87098D01*
X56533Y87118D01*
X56520Y87141D01*
X56361Y87327D01*
X56310Y87378D01*
X55909Y88073D01*
X55701Y88849D01*
X55701Y92251D01*
X62774Y92251D01*
X62800Y92254D01*
X62826Y92252D01*
X62973Y92274D01*
X63120Y92291D01*
X63145Y92299D01*
X63171Y92303D01*
X63308Y92358D01*
X63448Y92408D01*
X63470Y92422D01*
X63495Y92432D01*
X63616Y92517D01*
X63741Y92597D01*
X63759Y92616D01*
X63781Y92631D01*
X63880Y92741D01*
X63983Y92848D01*
X63997Y92870D01*
X64014Y92890D01*
X64086Y93020D01*
X64162Y93147D01*
X64170Y93172D01*
X64183Y93195D01*
X64223Y93338D01*
X64268Y93479D01*
X64270Y93505D01*
X64277Y93530D01*
X64297Y93774D01*
X64297Y94203D01*
X64726Y94203D01*
X64752Y94206D01*
X64778Y94204D01*
X64925Y94226D01*
X65072Y94243D01*
X65097Y94252D01*
X65123Y94256D01*
X65261Y94310D01*
X65400Y94360D01*
X65422Y94375D01*
X65447Y94384D01*
X65568Y94469D01*
X65693Y94549D01*
X65711Y94568D01*
X65733Y94583D01*
X65832Y94693D01*
X65935Y94800D01*
X65949Y94823D01*
X65966Y94842D01*
X66038Y94972D01*
X66114Y95099D01*
X66122Y95124D01*
X66135Y95147D01*
X66175Y95290D01*
X66220Y95431D01*
X66222Y95457D01*
X66230Y95482D01*
X66249Y95726D01*
X66249Y103299D01*
X66307Y103299D01*
X66407Y103310D01*
X66507Y103312D01*
X66579Y103330D01*
X66653Y103339D01*
X66748Y103372D01*
X66845Y103397D01*
X66911Y103431D01*
X66981Y103456D01*
X67066Y103511D01*
X67155Y103557D01*
X67212Y103605D01*
X67274Y103645D01*
X67344Y103717D01*
X67420Y103782D01*
X67465Y103842D01*
X67516Y103896D01*
X67568Y103982D01*
X67628Y104063D01*
X67657Y104131D01*
X67695Y104195D01*
X67726Y104291D01*
X67766Y104383D01*
X67779Y104456D01*
X67801Y104527D01*
X67809Y104627D01*
X67827Y104726D01*
X67823Y104800D01*
X67829Y104874D01*
X67814Y104974D01*
X67809Y105074D01*
X67789Y105145D01*
X67778Y105219D01*
X67741Y105312D01*
X67713Y105409D01*
X67676Y105474D01*
X67649Y105543D01*
X67592Y105625D01*
X67543Y105713D01*
X67477Y105789D01*
X67450Y105829D01*
X67424Y105853D01*
X67384Y105899D01*
X65278Y108005D01*
X65179Y108084D01*
X65085Y108168D01*
X65043Y108192D01*
X65005Y108222D01*
X64891Y108276D01*
X64780Y108337D01*
X64734Y108350D01*
X64690Y108371D01*
X64567Y108397D01*
X64445Y108432D01*
X64384Y108437D01*
X64349Y108444D01*
X64301Y108443D01*
X64201Y108451D01*
X56487Y108451D01*
X54577Y110361D01*
X54557Y110378D01*
X54540Y110398D01*
X54420Y110486D01*
X54304Y110578D01*
X54280Y110589D01*
X54259Y110605D01*
X54123Y110664D01*
X53989Y110727D01*
X53963Y110732D01*
X53939Y110743D01*
X53793Y110769D01*
X53648Y110800D01*
X53622Y110800D01*
X53596Y110804D01*
X53448Y110797D01*
X53300Y110794D01*
X53274Y110788D01*
X53248Y110787D01*
X53106Y110745D01*
X52962Y110709D01*
X52939Y110697D01*
X52913Y110690D01*
X52784Y110617D01*
X52652Y110550D01*
X52632Y110533D01*
X52609Y110520D01*
X52423Y110361D01*
X50513Y108451D01*
X36987Y108451D01*
X35201Y110237D01*
X35201Y122763D01*
X36361Y123923D01*
X36378Y123943D01*
X36398Y123960D01*
X36486Y124080D01*
X36578Y124196D01*
X36589Y124220D01*
X36605Y124241D01*
X36664Y124377D01*
X36727Y124511D01*
X36732Y124537D01*
X36743Y124561D01*
X36769Y124707D01*
X36800Y124852D01*
X36800Y124878D01*
X36804Y124904D01*
X36797Y125052D01*
X36794Y125200D01*
X36788Y125226D01*
X36787Y125252D01*
X36745Y125394D01*
X36709Y125538D01*
X36697Y125561D01*
X36690Y125587D01*
X36617Y125716D01*
X36550Y125848D01*
X36533Y125868D01*
X36520Y125891D01*
X36361Y126077D01*
X35810Y126628D01*
X35409Y127323D01*
X35201Y128099D01*
X35201Y131001D01*
X42774Y131001D01*
X42800Y131004D01*
X42826Y131002D01*
X42973Y131024D01*
X43120Y131041D01*
X43145Y131049D01*
X43171Y131053D01*
X43308Y131108D01*
X43448Y131158D01*
X43470Y131172D01*
X43495Y131182D01*
X43616Y131267D01*
X43741Y131347D01*
X43759Y131366D01*
X43781Y131381D01*
X43880Y131491D01*
X43983Y131598D01*
X43997Y131620D01*
X44014Y131640D01*
X44086Y131770D01*
X44162Y131897D01*
X44170Y131922D01*
X44183Y131945D01*
X44223Y132088D01*
X44268Y132229D01*
X44270Y132255D01*
X44277Y132280D01*
X44297Y132524D01*
X44297Y134476D01*
X44294Y134502D01*
X44296Y134528D01*
X44274Y134675D01*
X44257Y134822D01*
X44248Y134847D01*
X44244Y134873D01*
X44190Y135011D01*
X44140Y135150D01*
X44125Y135172D01*
X44116Y135197D01*
X44031Y135318D01*
X43951Y135443D01*
X43932Y135461D01*
X43917Y135483D01*
X43807Y135582D01*
X43700Y135685D01*
X43677Y135699D01*
X43658Y135716D01*
X43528Y135788D01*
X43401Y135864D01*
X43376Y135872D01*
X43353Y135885D01*
X43210Y135925D01*
X43069Y135970D01*
X43043Y135972D01*
X43018Y135980D01*
X42774Y135999D01*
X35201Y135999D01*
X35201Y138901D01*
X35301Y139272D01*
X35308Y139322D01*
X35324Y139371D01*
X35333Y139494D01*
X35352Y139616D01*
X35347Y139667D01*
X35352Y139718D01*
X35333Y139841D01*
X35323Y139964D01*
X35307Y140012D01*
X35300Y140063D01*
X35254Y140178D01*
X35216Y140296D01*
X35190Y140339D01*
X35171Y140387D01*
X35101Y140488D01*
X35037Y140594D01*
X35001Y140631D01*
X34972Y140673D01*
X34881Y140756D01*
X34794Y140845D01*
X34751Y140872D01*
X34713Y140906D01*
X34605Y140966D01*
X34501Y141033D01*
X34453Y141050D01*
X34408Y141075D01*
X34289Y141108D01*
X34173Y141150D01*
X34122Y141156D01*
X34073Y141170D01*
X33829Y141189D01*
X22406Y141189D01*
X22307Y141178D01*
X22206Y141176D01*
X22134Y141158D01*
X22060Y141149D01*
X21966Y141116D01*
X21868Y141091D01*
X21802Y141057D01*
X21732Y141032D01*
X21648Y140977D01*
X21558Y140931D01*
X21502Y140883D01*
X21439Y140843D01*
X21369Y140771D01*
X21293Y140706D01*
X21249Y140646D01*
X21197Y140592D01*
X21145Y140506D01*
X21086Y140425D01*
X21056Y140357D01*
X21018Y140293D01*
X20988Y140198D01*
X20948Y140105D01*
X20935Y140032D01*
X20912Y139961D01*
X20904Y139861D01*
X20886Y139762D01*
X20890Y139688D01*
X20884Y139614D01*
X20899Y139515D01*
X20904Y139414D01*
X20925Y139343D01*
X20936Y139269D01*
X20973Y139176D01*
X21001Y139079D01*
X21037Y139014D01*
X21064Y138945D01*
X21122Y138863D01*
X21171Y138775D01*
X21236Y138699D01*
X21263Y138659D01*
X21290Y138635D01*
X21329Y138589D01*
X21443Y138475D01*
X23049Y134598D01*
X23049Y130402D01*
X21443Y126525D01*
X19400Y124482D01*
X19350Y124419D01*
X19293Y124363D01*
X19214Y124247D01*
X19184Y124209D01*
X19174Y124189D01*
X19155Y124161D01*
X17781Y121757D01*
X17743Y121667D01*
X17695Y121581D01*
X17674Y121507D01*
X17644Y121437D01*
X17627Y121340D01*
X17600Y121245D01*
X17592Y121142D01*
X17584Y121094D01*
X17585Y121059D01*
X17581Y121002D01*
X17581Y117735D01*
X17595Y117610D01*
X17602Y117484D01*
X17615Y117437D01*
X17621Y117389D01*
X17663Y117270D01*
X17698Y117149D01*
X17722Y117107D01*
X17738Y117061D01*
X17807Y116955D01*
X17868Y116845D01*
X17908Y116798D01*
X17927Y116768D01*
X17962Y116735D01*
X18027Y116658D01*
X20807Y113878D01*
X21581Y112011D01*
X21581Y104572D01*
X21584Y104546D01*
X21582Y104520D01*
X21604Y104373D01*
X21621Y104226D01*
X21629Y104201D01*
X21633Y104175D01*
X21688Y104037D01*
X21738Y103898D01*
X21752Y103876D01*
X21762Y103851D01*
X21847Y103730D01*
X21927Y103605D01*
X21946Y103587D01*
X21961Y103565D01*
X22071Y103466D01*
X22178Y103363D01*
X22200Y103349D01*
X22220Y103332D01*
X22350Y103260D01*
X22477Y103184D01*
X22502Y103176D01*
X22525Y103163D01*
X22668Y103123D01*
X22809Y103078D01*
X22835Y103076D01*
X22860Y103068D01*
X23104Y103049D01*
X23263Y103049D01*
X23923Y102389D01*
X23943Y102372D01*
X23960Y102352D01*
X24079Y102264D01*
X24196Y102172D01*
X24220Y102161D01*
X24241Y102145D01*
X24377Y102087D01*
X24511Y102023D01*
X24537Y102018D01*
X24561Y102007D01*
X24707Y101981D01*
X24852Y101950D01*
X24878Y101950D01*
X24904Y101946D01*
X25052Y101953D01*
X25200Y101956D01*
X25226Y101962D01*
X25252Y101963D01*
X25394Y102005D01*
X25538Y102041D01*
X25561Y102053D01*
X25587Y102060D01*
X25716Y102133D01*
X25848Y102200D01*
X25868Y102217D01*
X25891Y102230D01*
X26077Y102389D01*
X26128Y102440D01*
X26823Y102841D01*
X27599Y103049D01*
X31001Y103049D01*
X31001Y95976D01*
X31004Y95950D01*
X31002Y95924D01*
X31024Y95777D01*
X31041Y95630D01*
X31049Y95605D01*
X31053Y95579D01*
X31108Y95442D01*
X31158Y95302D01*
X31172Y95280D01*
X31182Y95255D01*
X31267Y95134D01*
X31347Y95009D01*
X31360Y94997D01*
X31315Y94950D01*
X31301Y94927D01*
X31284Y94908D01*
X31212Y94778D01*
X31136Y94651D01*
X31128Y94626D01*
X31115Y94603D01*
X31075Y94460D01*
X31030Y94319D01*
X31027Y94293D01*
X31020Y94268D01*
X31001Y94024D01*
X31001Y86951D01*
X27599Y86951D01*
X26823Y87159D01*
X26128Y87560D01*
X26077Y87611D01*
X26057Y87628D01*
X26040Y87648D01*
X25920Y87736D01*
X25804Y87828D01*
X25780Y87839D01*
X25759Y87855D01*
X25623Y87914D01*
X25489Y87977D01*
X25463Y87982D01*
X25439Y87993D01*
X25293Y88019D01*
X25148Y88050D01*
X25122Y88050D01*
X25096Y88054D01*
X24948Y88047D01*
X24800Y88044D01*
X24774Y88038D01*
X24748Y88037D01*
X24606Y87995D01*
X24462Y87959D01*
X24438Y87947D01*
X24413Y87940D01*
X24284Y87868D01*
X24152Y87800D01*
X24132Y87783D01*
X24109Y87770D01*
X23923Y87611D01*
X23403Y87091D01*
X23340Y87013D01*
X23270Y86940D01*
X23232Y86876D01*
X23186Y86818D01*
X23143Y86727D01*
X23092Y86641D01*
X23069Y86570D01*
X23037Y86503D01*
X23016Y86405D01*
X22985Y86309D01*
X22979Y86235D01*
X22964Y86162D01*
X22965Y86062D01*
X22957Y85962D01*
X22968Y85888D01*
X22970Y85814D01*
X22994Y85717D01*
X23009Y85617D01*
X23037Y85548D01*
X23055Y85476D01*
X23101Y85386D01*
X23138Y85293D01*
X23180Y85232D01*
X23214Y85166D01*
X23280Y85089D01*
X23337Y85007D01*
X23392Y84957D01*
X23440Y84901D01*
X23521Y84841D01*
X23596Y84774D01*
X23661Y84738D01*
X23720Y84693D01*
X23813Y84654D01*
X23901Y84605D01*
X23972Y84585D01*
X24040Y84555D01*
X24139Y84538D01*
X24236Y84510D01*
X24336Y84502D01*
X24383Y84494D01*
X24419Y84496D01*
X24480Y84491D01*
X24913Y84491D01*
X26699Y82705D01*
X26699Y74553D01*
X26676Y74526D01*
X26665Y74505D01*
X26651Y74487D01*
X26586Y74350D01*
X26517Y74216D01*
X26512Y74193D01*
X26502Y74172D01*
X26470Y74024D01*
X26433Y73877D01*
X26433Y73854D01*
X26428Y73831D01*
X26431Y73680D01*
X26429Y73529D01*
X26434Y73501D01*
X26434Y73482D01*
X26446Y73437D01*
X26473Y73288D01*
X26699Y72445D01*
X26699Y70773D01*
X17046Y70773D01*
X17020Y70770D01*
X16994Y70772D01*
X16847Y70750D01*
X16700Y70734D01*
X16675Y70725D01*
X16649Y70721D01*
X16512Y70666D01*
X16372Y70616D01*
X16350Y70602D01*
X16326Y70592D01*
X16204Y70508D01*
X16079Y70427D01*
X16061Y70408D01*
X16039Y70393D01*
X15940Y70283D01*
X15837Y70176D01*
X15824Y70154D01*
X15806Y70134D01*
X15734Y70004D01*
X15658Y69877D01*
X15650Y69852D01*
X15637Y69829D01*
X15597Y69686D01*
X15552Y69545D01*
X15550Y69519D01*
X15543Y69494D01*
X15523Y69250D01*
X15526Y69224D01*
X15524Y69198D01*
X15546Y69051D01*
X15563Y68904D01*
X15572Y68879D01*
X15576Y68853D01*
X15630Y68715D01*
X15680Y68576D01*
X15695Y68553D01*
X15704Y68529D01*
X15789Y68408D01*
X15869Y68283D01*
X15888Y68264D01*
X15903Y68243D01*
X16013Y68144D01*
X16120Y68041D01*
X16143Y68027D01*
X16162Y68009D01*
X16292Y67938D01*
X16419Y67862D01*
X16444Y67854D01*
X16467Y67841D01*
X16610Y67801D01*
X16751Y67755D01*
X16777Y67753D01*
X16803Y67746D01*
X17046Y67727D01*
X26699Y67727D01*
X26699Y66055D01*
X26473Y65212D01*
X26451Y65063D01*
X26424Y64914D01*
X26425Y64890D01*
X26422Y64867D01*
X26434Y64717D01*
X26442Y64566D01*
X26448Y64543D01*
X26450Y64520D01*
X26497Y64376D01*
X26539Y64231D01*
X26550Y64210D01*
X26557Y64188D01*
X26635Y64059D01*
X26699Y63944D01*
X26699Y61765D01*
X26713Y61640D01*
X26720Y61514D01*
X26733Y61467D01*
X26739Y61419D01*
X26781Y61300D01*
X26816Y61179D01*
X26840Y61137D01*
X26856Y61091D01*
X26925Y60985D01*
X26986Y60875D01*
X27026Y60828D01*
X27045Y60798D01*
X27080Y60765D01*
X27145Y60688D01*
X30701Y57132D01*
X30779Y57070D01*
X30852Y57000D01*
X30916Y56962D01*
X30974Y56916D01*
X31065Y56873D01*
X31151Y56821D01*
X31222Y56799D01*
X31289Y56767D01*
X31387Y56746D01*
X31483Y56715D01*
X31557Y56709D01*
X31630Y56693D01*
X31730Y56695D01*
X31830Y56687D01*
X31904Y56698D01*
X31978Y56699D01*
X32075Y56724D01*
X32175Y56739D01*
X32244Y56766D01*
X32316Y56784D01*
X32406Y56830D01*
X32499Y56867D01*
X32560Y56910D01*
X32626Y56944D01*
X32703Y57009D01*
X32785Y57066D01*
X32835Y57122D01*
X32891Y57170D01*
X32951Y57251D01*
X33018Y57325D01*
X33054Y57390D01*
X33099Y57450D01*
X33138Y57542D01*
X33187Y57630D01*
X33207Y57702D01*
X33237Y57770D01*
X33254Y57869D01*
X33282Y57966D01*
X33290Y58066D01*
X33298Y58113D01*
X33296Y58149D01*
X33301Y58209D01*
X33301Y58329D01*
X42954Y58329D01*
X52607Y58329D01*
X52607Y56604D01*
X52610Y56578D01*
X52608Y56552D01*
X52630Y56405D01*
X52647Y56258D01*
X52655Y56233D01*
X52659Y56207D01*
X52714Y56069D01*
X52764Y55930D01*
X52778Y55908D01*
X52788Y55883D01*
X52873Y55762D01*
X52953Y55637D01*
X52972Y55619D01*
X52987Y55597D01*
X53097Y55498D01*
X53204Y55395D01*
X53226Y55381D01*
X53246Y55364D01*
X53376Y55292D01*
X53503Y55216D01*
X53528Y55208D01*
X53551Y55195D01*
X53694Y55155D01*
X53835Y55110D01*
X53861Y55108D01*
X53886Y55100D01*
X54130Y55081D01*
X54178Y55081D01*
X54204Y55084D01*
G37*
G36*
X162851Y64837D02*
X162851Y64837D01*
X162977Y64844D01*
X163023Y64857D01*
X163071Y64863D01*
X163190Y64905D01*
X163312Y64940D01*
X163354Y64964D01*
X163399Y64980D01*
X163506Y65049D01*
X163616Y65110D01*
X163662Y65150D01*
X163692Y65169D01*
X163726Y65204D01*
X163802Y65269D01*
X174356Y75823D01*
X174435Y75922D01*
X174519Y76016D01*
X174543Y76058D01*
X174573Y76096D01*
X174627Y76210D01*
X174688Y76321D01*
X174701Y76367D01*
X174722Y76411D01*
X174748Y76534D01*
X174783Y76656D01*
X174788Y76717D01*
X174795Y76752D01*
X174794Y76800D01*
X174802Y76900D01*
X174802Y81785D01*
X175498Y83465D01*
X176009Y83976D01*
X176071Y84054D01*
X176141Y84127D01*
X176179Y84191D01*
X176226Y84249D01*
X176269Y84340D01*
X176320Y84426D01*
X176343Y84497D01*
X176375Y84564D01*
X176396Y84662D01*
X176426Y84758D01*
X176432Y84832D01*
X176448Y84905D01*
X176446Y85005D01*
X176454Y85105D01*
X176443Y85179D01*
X176442Y85253D01*
X176418Y85350D01*
X176403Y85450D01*
X176375Y85519D01*
X176357Y85591D01*
X176311Y85680D01*
X176274Y85774D01*
X176232Y85835D01*
X176197Y85901D01*
X176132Y85978D01*
X176075Y86060D01*
X176020Y86110D01*
X175972Y86166D01*
X175891Y86226D01*
X175816Y86293D01*
X175751Y86329D01*
X175691Y86374D01*
X175599Y86413D01*
X175511Y86462D01*
X175440Y86482D01*
X175371Y86512D01*
X175272Y86529D01*
X175176Y86557D01*
X175076Y86565D01*
X175028Y86573D01*
X174993Y86571D01*
X174932Y86576D01*
X169049Y86576D01*
X168923Y86562D01*
X168797Y86555D01*
X168751Y86542D01*
X168703Y86536D01*
X168584Y86494D01*
X168462Y86459D01*
X168420Y86435D01*
X168375Y86419D01*
X168269Y86350D01*
X168158Y86289D01*
X168112Y86249D01*
X168082Y86230D01*
X168048Y86195D01*
X167972Y86130D01*
X165019Y83177D01*
X164940Y83078D01*
X164856Y82984D01*
X164832Y82942D01*
X164802Y82904D01*
X164748Y82790D01*
X164687Y82679D01*
X164674Y82633D01*
X164653Y82589D01*
X164627Y82466D01*
X164592Y82344D01*
X164587Y82283D01*
X164580Y82248D01*
X164581Y82200D01*
X164573Y82100D01*
X164573Y79090D01*
X163877Y77410D01*
X155840Y69373D01*
X155539Y69249D01*
X155472Y69212D01*
X155401Y69183D01*
X155321Y69127D01*
X155234Y69079D01*
X155178Y69028D01*
X155115Y68984D01*
X155049Y68911D01*
X154976Y68845D01*
X154933Y68782D01*
X154882Y68726D01*
X154834Y68640D01*
X154778Y68559D01*
X154750Y68487D01*
X154713Y68421D01*
X154686Y68326D01*
X154666Y68273D01*
X146524Y68273D01*
X146498Y68270D01*
X146472Y68272D01*
X146325Y68250D01*
X146178Y68234D01*
X146153Y68225D01*
X146127Y68221D01*
X145989Y68166D01*
X145850Y68116D01*
X145828Y68102D01*
X145803Y68092D01*
X145682Y68008D01*
X145557Y67927D01*
X145539Y67908D01*
X145517Y67893D01*
X145418Y67783D01*
X145315Y67676D01*
X145301Y67654D01*
X145284Y67634D01*
X145212Y67504D01*
X145136Y67377D01*
X145128Y67352D01*
X145115Y67329D01*
X145075Y67186D01*
X145030Y67045D01*
X145028Y67019D01*
X145020Y66994D01*
X145001Y66750D01*
X145004Y66724D01*
X145002Y66698D01*
X145024Y66551D01*
X145041Y66404D01*
X145049Y66379D01*
X145053Y66353D01*
X145108Y66215D01*
X145158Y66076D01*
X145172Y66053D01*
X145182Y66029D01*
X145267Y65908D01*
X145347Y65783D01*
X145366Y65764D01*
X145381Y65743D01*
X145491Y65644D01*
X145598Y65541D01*
X145620Y65527D01*
X145640Y65509D01*
X145770Y65438D01*
X145897Y65362D01*
X145922Y65354D01*
X145945Y65341D01*
X146088Y65301D01*
X146229Y65255D01*
X146255Y65253D01*
X146280Y65246D01*
X146524Y65227D01*
X155103Y65227D01*
X155196Y65137D01*
X155218Y65123D01*
X155238Y65106D01*
X155368Y65034D01*
X155495Y64958D01*
X155520Y64950D01*
X155543Y64937D01*
X155686Y64897D01*
X155827Y64852D01*
X155853Y64850D01*
X155878Y64842D01*
X156122Y64823D01*
X162725Y64823D01*
X162851Y64837D01*
G37*
%LPC*%
G36*
X53843Y19785D02*
X53843Y19785D01*
X53843Y24759D01*
X54051Y25535D01*
X54452Y26230D01*
X55020Y26798D01*
X55715Y27199D01*
X56491Y27407D01*
X58141Y27407D01*
X58289Y27424D01*
X58439Y27436D01*
X58462Y27444D01*
X58487Y27447D01*
X58628Y27497D01*
X58770Y27543D01*
X58792Y27556D01*
X58815Y27564D01*
X58941Y27645D01*
X59069Y27722D01*
X59087Y27740D01*
X59108Y27753D01*
X59212Y27861D01*
X59319Y27965D01*
X59333Y27986D01*
X59350Y28004D01*
X59427Y28132D01*
X59508Y28258D01*
X59516Y28282D01*
X59529Y28303D01*
X59575Y28445D01*
X59625Y28586D01*
X59628Y28611D01*
X59635Y28635D01*
X59647Y28784D01*
X59664Y28933D01*
X59661Y28957D01*
X59663Y28982D01*
X59641Y29130D01*
X59624Y29279D01*
X59615Y29302D01*
X59611Y29327D01*
X59556Y29466D01*
X59505Y29607D01*
X59492Y29628D01*
X59483Y29651D01*
X59397Y29773D01*
X59316Y29899D01*
X59298Y29917D01*
X59284Y29937D01*
X59173Y30037D01*
X59065Y30141D01*
X59043Y30154D01*
X59025Y30170D01*
X58894Y30243D01*
X58765Y30319D01*
X58737Y30329D01*
X58720Y30339D01*
X58674Y30352D01*
X58535Y30401D01*
X57573Y30659D01*
X56878Y31060D01*
X56310Y31628D01*
X55909Y32323D01*
X55701Y33099D01*
X55701Y36501D01*
X61251Y36501D01*
X61251Y28930D01*
X61254Y28904D01*
X61252Y28878D01*
X61274Y28731D01*
X61291Y28584D01*
X61299Y28559D01*
X61303Y28533D01*
X61358Y28395D01*
X61408Y28256D01*
X61422Y28234D01*
X61432Y28209D01*
X61465Y28162D01*
X61465Y19785D01*
X53843Y19785D01*
G37*
%LPD*%
%LPC*%
G36*
X56491Y7593D02*
X56491Y7593D01*
X55715Y7801D01*
X55020Y8202D01*
X54452Y8770D01*
X54051Y9465D01*
X53843Y10241D01*
X53843Y15215D01*
X61465Y15215D01*
X61465Y7593D01*
X56491Y7593D01*
G37*
%LPD*%
%LPC*%
G36*
X15547Y15547D02*
X15547Y15547D01*
X15547Y22602D01*
X16549Y22276D01*
X18029Y21522D01*
X19372Y20546D01*
X20546Y19372D01*
X21522Y18029D01*
X22276Y16549D01*
X22602Y15547D01*
X15547Y15547D01*
G37*
%LPD*%
%LPC*%
G36*
X44477Y61375D02*
X44477Y61375D01*
X44477Y65695D01*
X49959Y65695D01*
X50735Y65487D01*
X51430Y65086D01*
X51998Y64518D01*
X52399Y63823D01*
X52607Y63047D01*
X52607Y61375D01*
X44477Y61375D01*
G37*
%LPD*%
%LPC*%
G36*
X33301Y61375D02*
X33301Y61375D01*
X33301Y63047D01*
X33509Y63823D01*
X33910Y64518D01*
X34478Y65086D01*
X35173Y65487D01*
X35949Y65695D01*
X41431Y65695D01*
X41431Y61375D01*
X33301Y61375D01*
G37*
%LPD*%
%LPC*%
G36*
X35999Y97499D02*
X35999Y97499D01*
X35999Y103049D01*
X39401Y103049D01*
X40177Y102841D01*
X40872Y102440D01*
X41440Y101872D01*
X41841Y101177D01*
X42049Y100401D01*
X42049Y97499D01*
X35999Y97499D01*
G37*
%LPD*%
%LPC*%
G36*
X55701Y97249D02*
X55701Y97249D01*
X55701Y100651D01*
X55909Y101427D01*
X56310Y102122D01*
X56878Y102690D01*
X57573Y103091D01*
X58349Y103299D01*
X61251Y103299D01*
X61251Y97249D01*
X55701Y97249D01*
G37*
%LPD*%
%LPC*%
G36*
X146249Y7951D02*
X146249Y7951D01*
X146249Y14001D01*
X151799Y14001D01*
X151799Y10599D01*
X151591Y9823D01*
X151190Y9128D01*
X150622Y8560D01*
X149927Y8159D01*
X149151Y7951D01*
X146249Y7951D01*
G37*
%LPD*%
D10*
X63750Y77750D03*
X63750Y94750D03*
X63750Y56000D03*
X63750Y39000D03*
D11*
X16500Y95000D03*
X33500Y95000D03*
D10*
X143750Y33500D03*
X143750Y16500D03*
D12*
X63750Y17500D03*
D13*
X83750Y17500D03*
X103750Y17500D03*
X123750Y17500D03*
D14*
X192500Y12500D03*
X12500Y12500D03*
X192500Y132500D03*
X12500Y132500D03*
X192500Y72500D03*
D11*
X63250Y116500D03*
X63250Y133500D03*
X43750Y116500D03*
X43750Y133500D03*
X192500Y94000D03*
X192500Y111000D03*
X192500Y51000D03*
X192500Y34000D03*
D15*
X86300Y92750D03*
X86300Y86250D03*
X86300Y79750D03*
X86300Y73250D03*
X86300Y66750D03*
X86300Y60250D03*
X86300Y53750D03*
X86300Y47250D03*
X143700Y47250D03*
X143700Y53750D03*
X143700Y60250D03*
X143700Y66750D03*
X143700Y73250D03*
X143700Y79750D03*
X143700Y86250D03*
X143700Y92750D03*
D16*
X88690Y116250D03*
X141310Y116250D03*
D17*
X17046Y78648D03*
X17046Y69250D03*
X17046Y59852D03*
X42954Y59852D03*
X42954Y78648D03*
D11*
X170000Y94625D03*
X170000Y111625D03*
D14*
X167500Y12500D03*
D18*
X143700Y92750D02*
X136000Y92750D01*
X133700Y95050D01*
X133700Y108640D01*
X141310Y116250D01*
X96300Y108640D02*
X88690Y116250D01*
X96300Y108640D02*
X96300Y95050D01*
X94000Y92750D01*
X86300Y92750D01*
D19*
X192500Y53750D02*
X192500Y51000D01*
X192500Y53750D02*
X143700Y53750D01*
X131875Y53750D01*
X125375Y47250D02*
X86300Y47250D01*
X125375Y47250D02*
X131875Y53750D01*
D20*
X192500Y34000D02*
X192500Y23750D01*
X192500Y12500D01*
D19*
X187500Y15626D02*
X187815Y15931D01*
X188123Y16243D01*
X188423Y16563D01*
X188716Y16890D01*
X189001Y17223D01*
X189277Y17564D01*
X189546Y17911D01*
X189806Y18264D01*
X190058Y18623D01*
X190301Y18988D01*
X190535Y19359D01*
X190760Y19735D01*
X190977Y20117D01*
X191184Y20503D01*
X191382Y20895D01*
X191571Y21291D01*
X191750Y21691D01*
X191920Y22095D01*
X192079Y22504D01*
X192230Y22916D01*
X192370Y23332D01*
X192500Y23750D01*
X187500Y15625D02*
X197500Y15625D01*
X197500Y15626D02*
X197185Y15931D01*
X196877Y16243D01*
X196577Y16563D01*
X196284Y16890D01*
X195999Y17223D01*
X195723Y17564D01*
X195454Y17911D01*
X195194Y18264D01*
X194942Y18623D01*
X194699Y18988D01*
X194465Y19359D01*
X194240Y19735D01*
X194023Y20117D01*
X193816Y20503D01*
X193618Y20895D01*
X193429Y21291D01*
X193250Y21691D01*
X193080Y22095D01*
X192921Y22504D01*
X192770Y22916D01*
X192630Y23332D01*
X192500Y23750D01*
X179375Y80875D02*
X192500Y94000D01*
X179375Y80875D02*
X179375Y74375D01*
X165250Y60250D01*
X143700Y60250D01*
X104625Y60250D01*
X98125Y53750D02*
X86300Y53750D01*
X98125Y53750D02*
X104625Y60250D01*
D20*
X192500Y120625D02*
X192500Y132500D01*
X192500Y120625D02*
X192500Y111000D01*
D19*
X192500Y120625D02*
X192377Y121072D01*
X192243Y121515D01*
X192098Y121956D01*
X191944Y122392D01*
X191778Y122825D01*
X191603Y123254D01*
X191417Y123679D01*
X191222Y124099D01*
X191016Y124514D01*
X190801Y124924D01*
X190576Y125329D01*
X190341Y125729D01*
X190097Y126123D01*
X189844Y126511D01*
X189581Y126892D01*
X189310Y127268D01*
X189029Y127637D01*
X188740Y127999D01*
X188442Y128354D01*
X188136Y128702D01*
X187822Y129042D01*
X187500Y129375D01*
X197500Y129375D01*
X197178Y129042D01*
X196864Y128702D01*
X196558Y128354D01*
X196260Y127999D01*
X195971Y127637D01*
X195690Y127268D01*
X195419Y126892D01*
X195156Y126511D01*
X194903Y126123D01*
X194659Y125729D01*
X194424Y125329D01*
X194199Y124924D01*
X193984Y124514D01*
X193778Y124099D01*
X193583Y123679D01*
X193397Y123254D01*
X193222Y122825D01*
X193056Y122392D01*
X192902Y121956D01*
X192757Y121515D01*
X192623Y121072D01*
X192500Y120625D01*
X86300Y86250D02*
X75000Y86250D01*
X73125Y88125D01*
X63250Y116500D02*
X43750Y116500D01*
X63250Y116500D02*
X73125Y106625D01*
X73125Y88125D01*
D21*
X72388Y133500D02*
X63250Y133500D01*
D22*
X72388Y133500D03*
X183125Y63750D03*
D21*
X191875Y72500D02*
X192500Y72500D01*
X191875Y72500D02*
X183125Y63750D01*
D18*
X161200Y69000D02*
X158950Y66750D01*
X143700Y66750D01*
D22*
X161200Y69000D03*
X31250Y68750D03*
X15000Y37500D03*
X40000Y12500D03*
D18*
X54250Y66750D02*
X86300Y66750D01*
D22*
X28750Y130000D03*
X40000Y37500D03*
X48750Y90000D03*
D23*
X52500Y68750D03*
D22*
X48750Y102500D03*
X161200Y44875D03*
D20*
X53313Y69972D02*
X52500Y68750D01*
D18*
X155638Y66750D02*
X161200Y66750D01*
X161200Y69000D01*
X159636Y70617D02*
X155638Y66750D01*
X159636Y70617D02*
X161200Y69000D01*
X58157Y66750D02*
X53539Y70158D01*
X52500Y68750D01*
X52423Y67002D02*
X58157Y66750D01*
X52423Y67002D02*
X52500Y68750D01*
X155638Y66750D02*
X161200Y66750D01*
X161200Y69000D01*
X159636Y70617D02*
X155638Y66750D01*
X159636Y70617D02*
X161200Y69000D01*
X161200Y66750D02*
X155638Y66750D01*
X161200Y66750D02*
X161200Y69000D01*
X159636Y70617D02*
X155638Y66750D01*
X159636Y70617D02*
X161200Y69000D01*
X161200Y66750D02*
X155638Y66750D01*
X161200Y66750D02*
X161200Y69000D01*
X159636Y70617D02*
X155638Y66750D01*
X159636Y70617D02*
X161200Y69000D01*
X58157Y66750D02*
X53539Y70158D01*
X52500Y68750D01*
X52423Y67002D02*
X58157Y66750D01*
X52423Y67002D02*
X52500Y68750D01*
X53539Y70158D02*
X58157Y66750D01*
X53539Y70158D02*
X52500Y68750D01*
X52423Y67002D02*
X58157Y66750D01*
X52423Y67002D02*
X52500Y68750D01*
X53539Y70158D02*
X58157Y66750D01*
X53539Y70158D02*
X52500Y68750D01*
X52423Y67002D02*
X58157Y66750D01*
X52423Y67002D02*
X52500Y68750D01*
D22*
X28750Y110000D03*
D18*
X65750Y79750D02*
X86300Y79750D01*
D19*
X65750Y79750D02*
X63750Y77750D01*
X63750Y78648D01*
D20*
X42954Y78648D01*
X16500Y111000D02*
X12500Y115000D01*
X12500Y120625D02*
X12500Y132500D01*
X12500Y120625D02*
X12500Y115000D01*
X16500Y111000D02*
X16500Y95000D01*
D19*
X17046Y94454D01*
D20*
X17046Y78648D01*
X8398Y78648D01*
X6000Y76250D01*
X6000Y62125D01*
X8273Y59852D01*
X17046Y59852D01*
D19*
X143700Y47250D02*
X143700Y46625D01*
D20*
X143700Y33550D01*
D19*
X143750Y33500D01*
X73125Y46625D02*
X63750Y56000D01*
X73125Y46625D02*
X73125Y40375D01*
X83000Y30500D02*
X83750Y29750D01*
X83000Y30500D02*
X80000Y33500D01*
X73125Y40375D01*
X87500Y33500D02*
X143750Y33500D01*
D20*
X83750Y29750D02*
X83750Y17500D01*
X57750Y50000D02*
X63750Y56000D01*
X30648Y50000D02*
X20796Y59852D01*
X17046Y59852D01*
X30648Y50000D02*
X57750Y50000D01*
D19*
X83750Y29750D02*
X87500Y33500D01*
X85000Y33500D01*
X80000Y33500D01*
X85000Y33500D02*
X85000Y32500D01*
X83000Y30500D01*
X12500Y120625D02*
X12377Y121072D01*
X12243Y121515D01*
X12098Y121956D01*
X11944Y122392D01*
X11778Y122825D01*
X11603Y123254D01*
X11417Y123679D01*
X11222Y124099D01*
X11016Y124514D01*
X10801Y124924D01*
X10576Y125329D01*
X10341Y125729D01*
X10097Y126123D01*
X9844Y126511D01*
X9581Y126892D01*
X9310Y127268D01*
X9029Y127637D01*
X8740Y127999D01*
X8442Y128354D01*
X8136Y128702D01*
X7822Y129042D01*
X7500Y129375D01*
X17500Y129375D01*
X17178Y129042D01*
X16864Y128702D01*
X16558Y128354D01*
X16260Y127999D01*
X15971Y127637D01*
X15690Y127268D01*
X15419Y126892D01*
X15156Y126511D01*
X14903Y126123D01*
X14659Y125729D01*
X14424Y125329D01*
X14199Y124924D01*
X13984Y124514D01*
X13778Y124099D01*
X13583Y123679D01*
X13397Y123254D01*
X13222Y122825D01*
X13056Y122392D01*
X12902Y121956D01*
X12757Y121515D01*
X12623Y121072D01*
X12500Y120625D01*
D18*
X69250Y60250D02*
X86300Y60250D01*
X69250Y60250D02*
X65000Y56000D01*
X63750Y56000D01*
X126250Y79750D02*
X143700Y79750D01*
X126250Y79750D02*
X123750Y77250D01*
D22*
X123750Y77250D03*
D18*
X123648Y79498D02*
X129204Y79750D01*
X123648Y79498D02*
X123750Y77250D01*
X125386Y75705D02*
X129204Y79750D01*
X125386Y75705D02*
X123750Y77250D01*
X117500Y86250D02*
X143700Y86250D01*
X117500Y86250D02*
X115000Y88750D01*
D22*
X115000Y88750D03*
D18*
X116636Y90295D02*
X120454Y86250D01*
X116636Y90295D02*
X115000Y88750D01*
X114898Y86502D02*
X120454Y86250D01*
X114898Y86502D02*
X115000Y88750D01*
D19*
X143700Y73250D02*
X153250Y73250D01*
X160000Y80000D01*
X160000Y84625D02*
X170000Y94625D01*
X160000Y84625D02*
X160000Y80000D01*
D21*
X170000Y111625D02*
X170000Y122500D01*
D22*
X170000Y122500D03*
X167500Y25625D03*
D21*
X167500Y12500D01*
M02*
