M48
;GenerationSoftware,Autodesk,EAGLE,9.6.2*%
;CreationDate,2023-05-06T02:21:26Z*%
FMAT,2
ICI,OFF
METRIC,TZ,000.000
T2C0.400
T1C0.914
%
G90
M71
T1
X6375Y1750
X8375Y1750
X10375Y1750
X12375Y1750
T2
X7239Y13350
X18313Y6375
X16120Y6900
X3125Y6875
X1500Y3750
X4000Y1250
X2875Y13000
X4000Y3750
X4875Y9000
X5250Y6875
X4875Y10250
X16120Y4488
X2875Y11000
X12375Y7725
X11500Y8875
X17000Y12250
X16750Y2563
M30