G04 EAGLE Gerber RS-274X export*
G75*
%MOMM*%
%FSLAX34Y34*%
%LPD*%
%INSolderpaste Top*%
%IPPOS*%
%AMOC8*
5,1,8,0,0,1.08239X$1,22.5*%
G01*
%ADD10R,1.000000X1.100000*%
%ADD11R,1.100000X1.000000*%
%ADD12C,1.500000*%
%ADD13R,1.570000X0.350000*%
%ADD14R,2.100000X2.400000*%
%ADD15R,1.320800X0.558800*%


D10*
X63750Y77750D03*
X63750Y94750D03*
X63750Y56000D03*
X63750Y39000D03*
D11*
X16500Y95000D03*
X33500Y95000D03*
D10*
X143750Y33500D03*
X143750Y16500D03*
D12*
X192500Y12500D03*
X12500Y12500D03*
X192500Y132500D03*
X12500Y132500D03*
X192500Y72500D03*
D11*
X63250Y116500D03*
X63250Y133500D03*
X43750Y116500D03*
X43750Y133500D03*
X192500Y94000D03*
X192500Y111000D03*
X192500Y51000D03*
X192500Y34000D03*
D13*
X86300Y92750D03*
X86300Y86250D03*
X86300Y79750D03*
X86300Y73250D03*
X86300Y66750D03*
X86300Y60250D03*
X86300Y53750D03*
X86300Y47250D03*
X143700Y47250D03*
X143700Y53750D03*
X143700Y60250D03*
X143700Y66750D03*
X143700Y73250D03*
X143700Y79750D03*
X143700Y86250D03*
X143700Y92750D03*
D14*
X88690Y116250D03*
X141310Y116250D03*
D15*
X17046Y78648D03*
X17046Y69250D03*
X17046Y59852D03*
X42954Y59852D03*
X42954Y78648D03*
D11*
X170000Y94625D03*
X170000Y111625D03*
D12*
X167500Y12500D03*
M02*
